<svg xmlns="http://www.w3.org/2000/svg" viewBox="0 0 85.35 76.7"><g id="圖層_2" data-name="圖層 2"><path d="M81.24,0c0,.09,0,.24,0,.25a9.34,9.34,0,0,1,2.18,1.51s.14,0,.15.08a4.88,4.88,0,0,1,.59,2.45c0,.11-.16.21-.15.31a1.28,1.28,0,0,1-.38,1.18c-.34.32-.47.87-.81,1.19s-1,.57-1.4,1-.53-.41-.8.1-.48-.2-.79-.19a2.18,2.18,0,0,1-1.69-.4,6.11,6.11,0,0,1-.7-.64c-.14-.15-.19-.36-.47-.23,0,0-.39-.18,0-.31,0,0,0-.2-.07-.23s-.28,0-.36-.12,0-.22,0-.34,0-.23-.06-.35.06-.29,0-.35c-.54-.51,0-1.13-.19-1.67a.16.16,0,0,1,.05-.16,2.55,2.55,0,0,0,.53-1.14c.19-.75.86-1,1.42-1.31A14.36,14.36,0,0,1,79.8,0Z"/><path d="M49.19,3.28l.2.28c.06-.07.15-.14.16-.22s0-.29,0-.44a.79.79,0,0,1,.06-.44A9.85,9.85,0,0,0,50.75,1c.27-.5,1-.52,1.52-.62a1.83,1.83,0,0,0,.59-.08c.41-.23.77,0,1.16,0a3.63,3.63,0,0,1,1.66.83A2.73,2.73,0,0,1,57,2.87c.21.59,0,1.2.27,1.75a1.21,1.21,0,0,0-.5,1.16c0,.28,0,.41-.29.42-.06,0-.11.2-.18.28-.63.71-.7.57-1.66,1-.58.26-1.12,0-1.53.2-1.07.51-1.75-.15-2.36-.71A9.38,9.38,0,0,1,49.7,5.87,1.58,1.58,0,0,1,49.53,5c0-.28,0-.48-.35-.44Z"/><path d="M77.32,16.88a4,4,0,0,1-1.27,3.17,1.9,1.9,0,0,1-.33.22c-.18.12-.73-.11-.45.45,0,0,0,.05,0,.05-.8-.3-1.48,1-2.35.16-.14-.14-.57.14-.72-.24-.81.25-1.16-.41-1.59-.81-1.06-1-1-2.3-.92-3.57a3,3,0,0,1,.12-1.15,5.55,5.55,0,0,1,1.68-1.79c.37-.35,1.12-.33,1.7-.43a7.59,7.59,0,0,1,1.26,0c.17,0,.46.12.47.19,0,.45.4.25.59.37s.62.13.59.57c0,.24.14.28.36.18,0,0,.17,0,.18.07.11.36.36.7.44,1C77.18,15.81,77.56,16.35,77.32,16.88Z"/><path d="M67,25.87s.44.26.51.19c.4-.44.42.2.69.21.85,0,1,1.09,1.77,1.28-.11.6.89.76.55,1.53-.12.26.18.73.12,1.17a3.54,3.54,0,0,1-1.45,2.89c-.21.13.06.41-.33.48-.7.13-1.36.48-2,.65a1.1,1.1,0,0,1-.83-.2c-.52-.39-1.25-.31-1.72-.82-.19-.22-.49-.35-.65-.58a2.43,2.43,0,0,1-.35-.85c-.11-.41-.24-.81-.33-1.22A3.16,3.16,0,0,1,63.05,29c.1-.43.26-.85.36-1.28.06-.27,0-.59.46-.35,0,0,.15-.12.22-.2a3,3,0,0,1,1.36-1A3.47,3.47,0,0,1,67,25.87Z"/><path d="M59.91,12.77c.38.29,1,0,1.41.47a4.22,4.22,0,0,0,1.3.73c.63.27.77.87,1.05,1.35.14.25,0,.67.39.85,0,0,0,.17-.08.26s-.17.37-.13.53a2.65,2.65,0,0,1-.68,2.22c-.19.29-.35.59-.54.87a.43.43,0,0,1-.25.2c-.78.11-1.47.6-2.2.64s-1.51.28-1.94-.55c-.05-.09-.24-.14-.37-.19a2.6,2.6,0,0,1-1.34-1.35c-.16-.29-.45-.53-.53-.83a5.14,5.14,0,0,1-.08-1.36c0-.15.25-.34.2-.43-.32-.62.09-1,.47-1.38a8,8,0,0,1,1.72-1.63A4,4,0,0,1,59.91,12.77Z"/><path d="M52.86,26.34a5.66,5.66,0,0,1,2.6.69c.31.22.37.48.87.93a3.22,3.22,0,0,1,.85,1.45c.06.18,0,.95.06,1.11.11.49-.24.86-.3,1.3s0,.78-.56.7c0,0-.1.06-.12.11a3.52,3.52,0,0,1-2,1.55,4.22,4.22,0,0,1-1.67,0c-.27,0-.54-.18-.81-.18-.56,0-.84-.45-1.21-.72a1.5,1.5,0,0,1-.73-1.07c-.06-.52-.46-1-.51-1.62-.07-.9-.24-1,.14-1.73.2-.38.29-.79.77-.93.11,0,.35-.21,0-.36,0-.08.06-.2.13-.24.59-.32,1.18-.64,1.8-.92A2.48,2.48,0,0,1,52.86,26.34Z"/><path d="M67.64,8.23a13.07,13.07,0,0,1-2.08-.17,9.31,9.31,0,0,1-1.66-.79c.2-.61-.52-.57-.65-.93s-.22-.82-.32-1.23c0-.11-.09-.27,0-.31.38-.37,0-.69,0-1a3,3,0,0,1,.34-1.44A4.6,4.6,0,0,1,64.33,1c.12-.12.27-.55.56-.15a.1.1,0,0,0,.09,0,3.6,3.6,0,0,1,.39-.47c.06,0,.15.47.37.07.05-.08.15-.19.23-.19A9.67,9.67,0,0,1,67.83.17c.32,0,.58.46.92.61a3.15,3.15,0,0,1,1.74,1.84A6.52,6.52,0,0,1,70.62,4a5.18,5.18,0,0,1-.14,1.38,9.63,9.63,0,0,1-1,1.55c-.08.12-.27.18-.29.28-.15.82-1,.57-1.42,1,0,0-.11,0-.17,0Z"/><path d="M80,25.87c.58.17,1.17.22,1.76.43a3.9,3.9,0,0,1,1.75,1.63,4,4,0,0,1,.69,1.76s0,.07,0,.07c-.54.79-.23,1.93-1,2.6-.38.34-.54.9-1.11,1.06s-1,.62-1.59.3c-.08,0-.3.55-.52,0-.26.56-.47-.13-.79,0A.87.87,0,0,1,78,33.14c-.1-.3-.49-.15-.74-.45a4.29,4.29,0,0,1-1-3.33,4.51,4.51,0,0,1,.18-1c.09-.28.18-.67.39-.8.58-.37.89-1,1.51-1.29A13.4,13.4,0,0,1,80,25.87Z"/><path d="M9.21,24.42c.18.47.38.86.92.94a.61.61,0,0,1,.43.29,2.47,2.47,0,0,0,1.38,1.24c.15.07.35.14.4.25.23.63,1.3.4,1.28,1.27,1,.33,1.49,1.36,2.53,1.73.68.23,1.14,1.09,1.7,1.66a1.8,1.8,0,0,0,.43.29,5.76,5.76,0,0,1,2.28,2c.11,0,.28-.16.33-.12a1,1,0,0,0,.25.15,3,3,0,0,1,1-.58,1.8,1.8,0,0,1,.2-.19,8.06,8.06,0,0,0,1.75-1.26,3.76,3.76,0,0,1,1.16-1,4.07,4.07,0,0,0,.63-.46,15,15,0,0,1,1.5-1.27,4.58,4.58,0,0,0,1.08-.8,3.83,3.83,0,0,1,.29-.28,7.36,7.36,0,0,1,1.44-1.18,6.47,6.47,0,0,0,1-.73L31,26.26c.36-.05.15-1,1.12-.42-.12-.18,0-.2.2-.22a12.91,12.91,0,0,1,2-1.63c0-.08.08-.12.18-.12l.5-.38c0-.09,0-.12.06,0l.4-.31a1,1,0,0,1-.15-.14c.22.13.43-.22.62-.34a5.11,5.11,0,0,0,.87-.66c.44-.38.86-.77,1.31-1.14a8.42,8.42,0,0,1,.73-.61s.59-.43.61-.42c-.14-.11-.21-.21-.18-.36,0,.13.19.08.34.2v0l.33-.26h0c.83-.63,1.66-1.27,2.5-2v-.05a3,3,0,0,1-1.07-1.51c-.38-.26-.76-.51-1.13-.78a10.27,10.27,0,0,1-2.16-1.64,14.82,14.82,0,0,0-2.34-2c-.18-.15-.41-.11-.62-.36A17.66,17.66,0,0,0,33,9.31c-.32-.27-.71-.45-1.05-.7l-.58-.43h0c-.08-.07-3.3-2.37-3.3-2.37a22.3,22.3,0,0,0,2,1.16c-.28-.87-1.53-.72-1.88-1.62-.16-.42-1-.57-1.33-1-.64-.64-1.45-1-2.12-1.62S23.08,1.36,22.24.69a7.13,7.13,0,0,0-1-.57c-.4.25-.9.51-1.34.84s-.6.77-1,.91c-1.19.44-1.72,1.67-2.82,2.19a3.26,3.26,0,0,0-.7.46,13.72,13.72,0,0,1-2.67,2.2c-.74.38-1.13,1.19-1.88,1.57l-.33,0,.3-.51L9,9.63c-.37.31-.75.6-1.11.92a.32.32,0,0,0-.07.23,7,7,0,0,0-.83.47c-.51.41-1,.87-1.49,1.28-.75.6-1.54,1.15-2.27,1.78-.49.42-1.17.65-1.41,1.35a.52.52,0,0,1-.32.28c-.83.16-1,1-1.54,1.37A28,28,0,0,1,2.57,19.4c.76.77,1.76,1.21,2.47,2.07l.33,0a12.79,12.79,0,0,0,2.72,2.34l.67.79ZM6.55,17.1a3.29,3.29,0,0,1,.63-.55A8.57,8.57,0,0,0,9.09,15c.3-.23,1.13-.82,1.18-.85s1.1-.51,1.1-.51l.16-.35,1.2-.69-.72.23c.05,0,1-.79,1.7-1.35a4.08,4.08,0,0,0,.71-.58l-.79.9s-.72.5-.6.46,1.59-1.2,1.59-1.2l.85-1A4.65,4.65,0,0,1,16,9.67,18.92,18.92,0,0,0,18,8c.33-.28.81-.44,1-.78a2.56,2.56,0,0,1,1.21-.88,6.25,6.25,0,0,0,1-.86c.6.5,1.21,1,1.84,1.54.13.11.37.09.52.2a8,8,0,0,1,.7.61,6.53,6.53,0,0,0,.64.54c.57.39.94,1,1.67,1.22.18,0,.26.41.44.56.41.33.7.84,1.3.88.05,0,.15,0,.16,0,.57,1.08,1.71,1.5,2.6,2.21.4.32.53.9,1,1.14A13.43,13.43,0,0,1,34,15.75c.42.3.84.79,1.29.88s.47.37.42.65-.19.64-.71.58a1.22,1.22,0,0,0-.81.45c-.35.41-.64,1.08-1.05,1.17s-.55.57-.9.73a1.53,1.53,0,0,0-1.05.94c-.1.31-.71.42-1.06.68s-.65.59-1,.86a8.12,8.12,0,0,1-.76.47l0,0c-.33.24-.64.62-1,.67s0,.53-.55.55-.76.8-1.17,1.21a9.19,9.19,0,0,1-.92.69c-.63.47-1.27.93-1.89,1.41a13.5,13.5,0,0,1-1.18,1,.94.94,0,0,1-.85,0,12.57,12.57,0,0,1-1.5-1.23c-.31-.28-.58-.61-.86-.9l-.13.21c-.59-.57-1.15-1.18-1.79-1.7S15,24,14.31,23.42s-1.31-1.13-2-1.69a13.17,13.17,0,0,0-2-1.54c-.74-.4-1.12-1.16-1.95-1.53C7.75,18.38,7.33,17.54,6.55,17.1Z"/><path d="M27.63,17.89l.89-.56c-.12-.11-.49-.3-.61-.41l.24-.12-.46-.34-2.32-1.75a3.8,3.8,0,0,0-.76-.69,9.91,9.91,0,0,1-.82-.63l.44.59-1.15-1.15h0l-.68-.56L22.14,12a2.26,2.26,0,0,0-.29-.32h0l-.59-.42-.26.22a.58.58,0,0,0-.28.08,28.13,28.13,0,0,1-2.4,1.93,18.54,18.54,0,0,0-2.11,1.66c-.39.34-.72.75-1.15,1.21l-.13-.08a11.48,11.48,0,0,1-1.13,1.19,3.37,3.37,0,0,1,.33.26,7,7,0,0,0,1.27.91.59.59,0,0,1,.23.24c.19.59.77.74,1.16,1.1a11,11,0,0,0,1.57,1.24,4.73,4.73,0,0,0,.93.48c.72.69,1.37,1,2,1.57L22.44,22c-.11.2-.08.09-.33.47.63-.65.92-.68.92-.69.6-.45.84-.71,1.38-1.11l.1.13c.21-.25.43-.48.62-.74a23.41,23.41,0,0,1,2-1.91Z"/><path d="M35.59,54a1.55,1.55,0,0,0-.66-.57,1.45,1.45,0,0,1-.39-.27,4,4,0,0,1-.27-.31l-.19-.22-.16-.14v-.07s0,0,0,0a4,4,0,0,1-.38-.32,1.73,1.73,0,0,0-.3-.24,1.48,1.48,0,0,1-.61-.57l0,0L32.29,51a3.31,3.31,0,0,1-.8-.65,1.75,1.75,0,0,1-.6-.42l-.08-.08a.7.7,0,0,1-.18-.2,2,2,0,0,1-.54-.41L30,49.14a2.15,2.15,0,0,1-.29-.24l-.24-.22a.94.94,0,0,1-.34-.18l-.28-.22-.13.07-.13.06a1.49,1.49,0,0,1-.51.46l-.08.05-.24.21a4.37,4.37,0,0,1-.74.61l-.11.08-.39.46-.07,0c-.42.33-.61.48-.72.55l0,.06-.51.3-.09.19-.28.13-.39.17-.05,0-.39.3c-.23.17-.42.31-.56.43l0,0a1.76,1.76,0,0,1-.38.31l-.11.11-.05,0-.08.1a2.45,2.45,0,0,1-.65.61l-.17.13-.12.14-.2.08-.12.08-.4.41-.31-.13-.43.19L20,54a1.18,1.18,0,0,0-.26-.29,1.6,1.6,0,0,1-.54-.36,1.08,1.08,0,0,1-.24-.18,4.28,4.28,0,0,1-.29-.33l-.18-.2-.16-.15V52.4l0,0c-.13-.1-.24-.19-.36-.3a1.2,1.2,0,0,0-.31-.25,1.54,1.54,0,0,1-.61-.57l0-.06L16.73,51a3.18,3.18,0,0,1-.82-.67,1.62,1.62,0,0,1-.61-.42l-.07-.07a1,1,0,0,1-.19-.21,2,2,0,0,1-.54-.4l-.14-.13a1.85,1.85,0,0,1-.29-.24l-.24-.22a.84.84,0,0,1-.34-.17l-.29-.24,0,0-.14.07-.11.06a1.62,1.62,0,0,1-.52.46l-.08,0-.24.22a4.28,4.28,0,0,1-.73.59l-.12.09-.38.45-.07.05c-.42.33-.61.47-.72.54l0,.06-.52.3-.09.19-.29.14-.37.17L8.35,52l-.81.65-.23.2-1.07.92L6,54l-.19.15-.54.44-1-.87L4,53.53a1,1,0,0,1-.32-.29l-.15-.15a1.83,1.83,0,0,1-.35-.68l-.13-.55.45-.32L4.17,51l.6-.58,1-.82L6.49,49l.21-.11a.5.5,0,0,1,.12-.13l.34-.29.14-.12.9-1,.2.15.07-.07A2.38,2.38,0,0,1,9.09,47a2.88,2.88,0,0,0,.69-.56,4.2,4.2,0,0,1,.32-.29,2.11,2.11,0,0,1,.49-.33,1.17,1.17,0,0,0,.33-.29,2.83,2.83,0,0,1,.87-.66h0a1.61,1.61,0,0,1,.32-.32,5.19,5.19,0,0,1,.51-.32l.55-.34.42.24.13.07a2.25,2.25,0,0,1,.41.25l1.11.93a3,3,0,0,0,.32.24,3.79,3.79,0,0,1,.62.49l.09,0a1.37,1.37,0,0,1,.65.56l.05,0a1.43,1.43,0,0,1,.79.72l.29.21.31.23.13.08a2.68,2.68,0,0,1,.37.25l.15.13a7.05,7.05,0,0,1,.77.69,1.17,1.17,0,0,1,.25.15c.19.15.52.47.9.84l.14-.11.35-.27.29-.25c.15-.14.26-.23.37-.32a1.17,1.17,0,0,1,.25-.16l.11-.12.34-.28.14-.12.91-1,.19.15.07-.07a2.52,2.52,0,0,1,.45-.4v0l.13-.09a3.46,3.46,0,0,0,.69-.56l.31-.3a2.37,2.37,0,0,1,.5-.32,1.36,1.36,0,0,0,.33-.29,2.83,2.83,0,0,1,.87-.66,1.72,1.72,0,0,1,.33-.33c.18-.13.36-.24.49-.32l.16-.1.41-.25,0,0,.14.06.43.24a2.33,2.33,0,0,1,.4.25c.38.3.75.61,1.11.92a3.15,3.15,0,0,0,.33.25,4,4,0,0,1,.62.49l.08,0a1.32,1.32,0,0,1,.65.57l.06,0a1.52,1.52,0,0,1,.79.73l.28.2.33.14,0,.08h0l.12.08a2.53,2.53,0,0,1,.37.26l.16.12a9.94,9.94,0,0,1,.77.7,1.17,1.17,0,0,1,.25.15l.1.08v0l.1.08a4.74,4.74,0,0,1,.89.78,2.25,2.25,0,0,0,.49.38l.31.21.2.14-.1.22.14-.2.25.17,1.12.79-.44.58a.72.72,0,0,1-.11.19,8.44,8.44,0,0,1-1.08,1.15l-.12.15-.2.08a.57.57,0,0,0-.13.08l-.37.39-.32-.12-.44.2Z"/><path d="M35.57,64.92a1.74,1.74,0,0,0-.65-.57,1.39,1.39,0,0,1-.39-.26l-.28-.32-.18-.21-.16-.14v-.08l0,0a4.3,4.3,0,0,1-.37-.31,1.73,1.73,0,0,0-.3-.24,1.48,1.48,0,0,1-.61-.57l0,0a3.39,3.39,0,0,0-.28-.2,3.21,3.21,0,0,1-.8-.64,1.56,1.56,0,0,1-.6-.43l-.08-.07a1.8,1.8,0,0,1-.19-.2,2.07,2.07,0,0,1-.53-.41,1.14,1.14,0,0,0-.14-.12,1.85,1.85,0,0,1-.29-.24l-.24-.22a1,1,0,0,1-.34-.18l-.28-.23-.12.07-.14.07a1.5,1.5,0,0,1-.52.46l-.08.05-.26.24a4.12,4.12,0,0,1-.71.57l-.11.09-.39.45-.07,0c-.42.33-.61.47-.72.54l0,.07-.51.29-.1.2-.67.3-.11.08L24,63l-.56.44,0,0a2.47,2.47,0,0,1-.38.32l-.11.1,0,0-.08.1a2.62,2.62,0,0,1-.66.61,1.32,1.32,0,0,0-.16.12l-.12.15-.2.08a.41.41,0,0,0-.13.08l-.39.41-.31-.14-.43.2-.38-.6a1.48,1.48,0,0,0-.26-.3,1.73,1.73,0,0,1-.54-.35,1.64,1.64,0,0,1-.25-.19,3.74,3.74,0,0,1-.27-.31l-.19-.22-.16-.14v-.07l0,0a3.19,3.19,0,0,1-.38-.32,1.73,1.73,0,0,0-.3-.24,1.41,1.41,0,0,1-.61-.57l0-.05a2.93,2.93,0,0,0-.26-.18,3.77,3.77,0,0,1-.82-.66,1.56,1.56,0,0,1-.6-.43l-.08-.07a.91.91,0,0,1-.19-.2,2.12,2.12,0,0,1-.53-.41l-.14-.12-.29-.24-.24-.22a1,1,0,0,1-.34-.18l-.29-.24-.16.09-.13.06a1.4,1.4,0,0,1-.52.46l-.08,0-.26.24a4.16,4.16,0,0,1-.71.58l-.12.08-.38.45-.07,0c-.42.33-.61.48-.72.55l0,.06-.52.3-.09.19-.33.15-.34.15L8.34,63l-.81.64-.23.21-1.08.91a2.93,2.93,0,0,1-.27.21l-.19.15-.54.43-1-.86L4,64.46a1.16,1.16,0,0,1-.32-.29A1,1,0,0,1,3.53,64a2,2,0,0,1-.35-.69l-.13-.54.45-.32L4.16,62l.6-.57,1-.82L6.48,60l.21-.12a.49.49,0,0,1,.12-.13l.36-.3.12-.1.9-1,.2.15.07-.08a2.21,2.21,0,0,1,.62-.5,3.77,3.77,0,0,0,.69-.56l.31-.29a1.81,1.81,0,0,1,.5-.33,1.88,1.88,0,0,0,.33-.29,2.72,2.72,0,0,1,.87-.66h0a1.72,1.72,0,0,1,.33-.33c.18-.14.36-.24.5-.33l.56-.34.42.24.14.08a2.59,2.59,0,0,1,.39.24c.39.32.77.63,1.11.93a3.81,3.81,0,0,0,.32.24,4.06,4.06,0,0,1,.63.5l.09,0a1.46,1.46,0,0,1,.65.57l0,0a1.48,1.48,0,0,1,.79.73l.3.21.3.22.14.09a2.6,2.6,0,0,1,.36.25l.15.12a8.39,8.39,0,0,1,.77.7,1.17,1.17,0,0,1,.25.15c.19.15.52.46.9.83l.1-.08c.17-.12.28-.21.39-.3a3.22,3.22,0,0,0,.28-.24l.37-.32a1.64,1.64,0,0,1,.26-.17l.11-.11.36-.3.12-.1.91-1,.19.14.07-.07a2.53,2.53,0,0,1,.45-.39v0l.13-.1a3.61,3.61,0,0,0,.69-.55l.31-.3a2.41,2.41,0,0,1,.5-.33,1.17,1.17,0,0,0,.33-.29,3,3,0,0,1,.87-.66,2.57,2.57,0,0,1,.33-.33,5.69,5.69,0,0,1,.5-.32l.15-.09.41-.25,0,0,.14,0,.29.17.14.07a3.17,3.17,0,0,1,.4.25l1.11.93c.09.08.2.16.31.24a4.55,4.55,0,0,1,.64.49l.09.05a1.33,1.33,0,0,1,.64.57l.06,0a1.48,1.48,0,0,1,.78.72l.3.22h0c.06,0,.15.1.3.22l.14.09.36.24.15.13a7,7,0,0,1,.77.7.81.81,0,0,1,.25.14l.11.09v0l.13.1a5,5,0,0,1,.86.76,2.25,2.25,0,0,0,.49.38l.3.2.26.18A1.88,1.88,0,0,1,38,62l1.12,1-.44.37-.1.2c-.18.36-.33.71-.46,1.05l-.62.1c-.17.45-.26.56-.32.55s-.11-.27-.1-.27a2.13,2.13,0,0,1,.1.27l-.55.45L36,65.53Z"/><path d="M35.56,76.08a1.58,1.58,0,0,0-.65-.57,1.45,1.45,0,0,1-.39-.27c-.1-.1-.18-.2-.27-.3a1.9,1.9,0,0,0-.2-.23l-.15-.14v-.08l0,0a2.76,2.76,0,0,1-.37-.31,1.73,1.73,0,0,0-.3-.24,1.41,1.41,0,0,1-.61-.57l0,0-.27-.18a3.73,3.73,0,0,1-.81-.66,1.85,1.85,0,0,1-.61-.42L30.79,72a.91.91,0,0,1-.19-.2,2.42,2.42,0,0,1-.54-.41l-.13-.12a2.18,2.18,0,0,1-.3-.25s-.22-.19-.23-.21a1.08,1.08,0,0,1-.34-.17l-.28-.23-.15.08-.11,0A1.4,1.4,0,0,1,28,71l-.08,0-.25.23a5.27,5.27,0,0,1-.72.59l-.11.08-.39.46-.07,0c-.42.32-.61.47-.72.54l0,.06-.52.29-.09.2-.29.13-.38.17-.12.09-.32.24-.56.43,0,0a2.53,2.53,0,0,1-.38.31l-.11.11-.05,0-.08.1a2.8,2.8,0,0,1-.65.61l-.18.12-.11.15-.2.08a.32.32,0,0,0-.13.08l-.34.36-.33-.1-.46.22L20,76.06a1.37,1.37,0,0,0-.25-.3,1.36,1.36,0,0,1-.54-.35,1,1,0,0,1-.25-.19c-.1-.1-.19-.21-.28-.31l-.18-.22-.16-.14v-.07l0,0a4,4,0,0,1-.38-.32,1.4,1.4,0,0,0-.29-.24,1.4,1.4,0,0,1-.61-.56l0-.06-.28-.19a3.31,3.31,0,0,1-.8-.65,1.71,1.71,0,0,1-.61-.42.45.45,0,0,0-.07-.07,1.29,1.29,0,0,1-.19-.21,2.12,2.12,0,0,1-.53-.4l-.14-.13A2.09,2.09,0,0,1,14,71s-.22-.2-.23-.22a1.08,1.08,0,0,1-.34-.17l-.3-.25,0,0-.13.07-.11,0a1.55,1.55,0,0,1-.52.47s-.07,0-.08,0l-.24.21a4.24,4.24,0,0,1-.73.6l-.12.08-.38.46-.08,0c-.42.33-.61.47-.71.54l0,.06-.51.3-.09.19-.28.13-.39.17-.46.34-.8.65-.24.2c-.08.08-.33.29-1.07.91a2.42,2.42,0,0,1-.24.19l-.23.17-.53.44-1-.87L4,75.61a1.19,1.19,0,0,1-.3-.27,1.25,1.25,0,0,1-.16-.17,1.58,1.58,0,0,1-.35-.68L3,73.94l.45-.32.66-.51.6-.58,1-.82.68-.59.2-.11.12-.14.35-.29.14-.11.9-1,.2.15.06-.07a2.44,2.44,0,0,1,.63-.51,3.4,3.4,0,0,0,.69-.56l.31-.29a2.06,2.06,0,0,1,.5-.33,1.88,1.88,0,0,0,.33-.29,2.8,2.8,0,0,1,.87-.66h0a1.61,1.61,0,0,1,.32-.32,4.94,4.94,0,0,1,.5-.32l.56-.34.42.24.11.06a2.26,2.26,0,0,1,.42.26q.57.45,1.11.93l.32.24a4.17,4.17,0,0,1,.63.49l.09,0a1.37,1.37,0,0,1,.65.56l.05,0a1.43,1.43,0,0,1,.79.72l.3.21h0a2.89,2.89,0,0,1,.31.22l.12.08a2.26,2.26,0,0,1,.38.25l.15.13a7.84,7.84,0,0,1,.77.69,1.17,1.17,0,0,1,.25.15c.18.15.51.46.9.83L21,72l.39-.3.29-.26.36-.31a2.85,2.85,0,0,1,.26-.17l.11-.11.36-.3.12-.1.9-1,.2.15.07-.08a2.84,2.84,0,0,1,.44-.39h0l.14-.1a4.14,4.14,0,0,0,.69-.56l.31-.3a2.41,2.41,0,0,1,.5-.33,1,1,0,0,0,.33-.29,2.86,2.86,0,0,1,.87-.65l0,0a1.79,1.79,0,0,1,.31-.3,5.68,5.68,0,0,1,.48-.32l.17-.1.41-.25,0,0,.15.05.29.17.13.07a2.76,2.76,0,0,1,.41.26c.37.3.75.61,1.1.92a2.85,2.85,0,0,0,.33.25,3.68,3.68,0,0,1,.62.49l.09,0a1.41,1.41,0,0,1,.65.57l.06,0a1.44,1.44,0,0,1,.78.72l.3.21h0L34,70l.12.08a2.33,2.33,0,0,1,.38.26l.15.12a8.39,8.39,0,0,1,.77.7.87.87,0,0,1,.25.15l.11.08v0l.1.07a5.6,5.6,0,0,1,.9.79,2.25,2.25,0,0,0,.49.38l.3.21.49.33,1.23,1.13-.55.24-.45.7-.66.27-.08.37-.11.15-.2.08a.13.13,0,0,0-.09.05.33.33,0,0,0,0,.39l-.39,0-.31-.12-.44.2Z"/><path d="M42.24,15.94c0-.12,0-.08,0,0Z"/><path d="M60.32,51.75c.07.51,0,.78.23.87a.45.45,0,0,0,.36,0,3.19,3.19,0,0,0,.21,1.29,3.14,3.14,0,0,0,.62,1,4.76,4.76,0,0,0,.79,1.16,6.11,6.11,0,0,0,4.79,1.61,7,7,0,0,0,3.11-1,6.8,6.8,0,0,0,2.26-3.16,7.27,7.27,0,0,0,.19-4,5.7,5.7,0,0,0-.6-1.32,5.84,5.84,0,0,0-2-1.95l-.3.18a6.54,6.54,0,0,0-1.86-.71c-.2,0-2-.42-2.77.09-.07,0-.36.23-.42.17s0-.11,0-.17a1.27,1.27,0,0,0-1.09.41.54.54,0,0,0-.07.13v0a3.7,3.7,0,0,0-1.39.52A4.7,4.7,0,0,0,60.52,50a.14.14,0,0,1-.11,0,.1.1,0,0,1,0,0A5,5,0,0,0,60.32,51.75Z"/><path d="M61.45,64.27a5.11,5.11,0,0,0-2.57-1.79,4.2,4.2,0,0,0-.45-.11,8.11,8.11,0,0,0-1.87-.23,19.25,19.25,0,0,0-3.38.7s.12-.11.11-.16-.09,0-.3,0l-2.84,2.05.43.12a2.64,2.64,0,0,0-.48.26c-1.27.87-1.37,2.7-1.42,3.56a7.52,7.52,0,0,0,.78,3.68c-.08,0-.27,0-.33.05s.06.33.34.56a7.3,7.3,0,0,0,6.87,3.72l.48-.08a6.45,6.45,0,0,0,1.88-.77l.36-.64.26.46L60,75.4c.15-.08.3-.18.44-.27.31-.2.65-.43.8-.55a4.17,4.17,0,0,0,1.08-1.29A8.49,8.49,0,0,0,63.2,71a9.21,9.21,0,0,0-.42-5.3Z"/><path d="M72.6,73.81a3.16,3.16,0,0,0,2,1.34,1.86,1.86,0,0,0,.67,0,.71.71,0,0,0,.15.44c.08.09.17.11.51.29a3.8,3.8,0,0,0,.49.22,7.06,7.06,0,0,0,3.24.22.56.56,0,0,1-.21.17.47.47,0,0,0,.37-.09c.14-.17,0-.5,0-.55s.29.22.47.33.88.17,2.2-.76A6.86,6.86,0,0,0,83.87,74l.92-1.68-.21-.4a.41.41,0,0,0,.31.07c.38-.11.42-1.07.44-1.53,0-1.77.1-3.28-.85-4.84-1.79-3-5.42-3.24-5.75-3.26l.21-.12-1.28.08-2.12.54a.16.16,0,0,0,.06-.05,9.63,9.63,0,0,0-1.36.79l-.87.61a.51.51,0,0,1,.11.35c0,.25-.41.46-.89.41a5.23,5.23,0,0,0-.94,1.21C70.06,68.93,71.42,72.33,72.6,73.81Z"/></g></svg>